<svg width="135" height="40" viewBox="0 0 135 40" fill="none" xmlns="http://www.w3.org/2000/svg">
<g clip-path="url(#clip0_3_4998)">
<path d="M130.2 39.5H4.73105C3.60963 39.4976 2.53482 39.0511 1.74186 38.2581C0.949012 37.4653 0.502497 36.3907 0.5 35.2695V4.73C0.5 3.60813 0.945659 2.53222 1.73894 1.73894C2.53222 0.945659 3.60813 0.5 4.73 0.5L130.2 0.5C131.33 0.49988 132.414 0.944296 133.219 1.73719C134.023 2.52937 134.483 3.60581 134.5 4.73422V35.2658C134.483 36.3942 134.023 37.4706 133.219 38.2628C132.414 39.0557 131.33 39.5001 130.2 39.5Z" fill="black" stroke="#7F7F7F"/>
<path d="M30.1298 19.7798C30.1433 18.8028 30.4033 17.845 30.8858 16.9954C31.3683 16.1458 32.0577 15.4318 32.8898 14.9198C32.3601 14.1633 31.6613 13.5407 30.8489 13.1015C30.0365 12.6624 29.1329 12.4186 28.2098 12.3898C26.2098 12.1798 24.3398 13.5698 23.3298 13.5698C22.3198 13.5698 20.7598 12.4098 19.0998 12.4498C18.0244 12.4852 16.9765 12.7986 16.0583 13.3594C15.14 13.9202 14.3826 14.7093 13.8598 15.6498C11.5898 19.5698 13.2798 25.3398 15.4598 28.5098C16.5498 30.0598 17.8198 31.7998 19.4598 31.7398C21.0998 31.6798 21.6898 30.7398 23.6498 30.7398C25.6098 30.7398 26.1598 31.7398 27.8598 31.7398C29.5598 31.7398 30.6998 30.1798 31.7498 28.6098C32.5303 27.5045 33.1311 26.2827 33.5298 24.9898C32.5115 24.5548 31.645 23.8277 31.0398 22.9003C30.4346 21.973 30.1179 20.8871 30.1298 19.7798Z" fill="white"/>
<path d="M26.9296 10.3102C27.8818 9.1693 28.3518 7.70207 28.2396 6.22021C26.7869 6.37132 25.4445 7.06396 24.4796 8.16021C24.0081 8.69657 23.6471 9.32066 23.4171 9.99675C23.1872 10.6728 23.0929 11.3876 23.1396 12.1002C23.8655 12.1079 24.5838 11.9508 25.2403 11.6408C25.8967 11.3307 26.4743 10.8758 26.9296 10.3102Z" fill="white"/>
<path d="M53.6502 31.5002H51.3702L50.1302 27.5902H45.8102L44.6202 31.5002H42.4102L46.6902 18.2002H49.3402L53.6502 31.5002ZM49.7602 26.0002L48.6402 22.5202C48.5135 22.1402 48.3002 21.3002 48.0002 20.0002C47.8668 20.5669 47.6568 21.4035 47.3702 22.5102L46.1802 26.0002H49.7602Z" fill="white"/>
<path d="M64.6599 26.5899C64.7389 28.0023 64.2655 29.3901 63.3399 30.4599C62.968 30.8673 62.5133 31.1906 62.0062 31.4079C61.4991 31.6252 60.9515 31.7316 60.3999 31.7199C59.8656 31.7627 59.3298 31.6586 58.8504 31.4189C58.371 31.1792 57.9663 30.813 57.6799 30.3599V35.4099H55.4999V25.0699C55.4999 24.0432 55.4733 22.9899 55.4199 21.9099H57.2999L57.4199 23.4299C57.7423 22.9347 58.176 22.5217 58.6864 22.2239C59.1968 21.9262 59.7697 21.7518 60.3595 21.7149C60.9492 21.678 61.5394 21.7795 62.083 22.0113C62.6265 22.2431 63.1083 22.5988 63.4899 23.0499C64.2966 24.0488 64.7125 25.307 64.6599 26.5899ZM62.4899 26.6699C62.5207 25.8536 62.3009 25.0475 61.8599 24.3599C61.6542 24.0585 61.3761 23.8136 61.0511 23.6477C60.7261 23.4817 60.3647 23.3999 59.9999 23.4099C59.4769 23.4094 58.9704 23.5935 58.5699 23.9299C58.1427 24.2781 57.8464 24.7612 57.7299 25.2999C57.6711 25.5119 57.6375 25.7301 57.6299 25.9499V27.5499C57.6108 28.1998 57.8396 28.8326 58.2699 29.3199C58.4779 29.5557 58.7355 29.7426 59.0242 29.8671C59.313 29.9916 59.6257 30.0506 59.9399 30.0399C60.3062 30.0555 60.6705 29.9784 60.9991 29.8159C61.3277 29.6533 61.61 29.4105 61.8199 29.1099C62.2962 28.3881 62.5308 27.5337 62.4899 26.6699Z" fill="white"/>
<path d="M75.7 26.5899C75.7789 28.0023 75.3055 29.3901 74.38 30.4599C74.0084 30.8679 73.5538 31.1914 73.0466 31.4088C72.5395 31.6261 71.9916 31.7322 71.44 31.7199C70.9057 31.7627 70.3699 31.6586 69.8905 31.4189C69.4111 31.1792 69.0063 30.813 68.72 30.3599V35.4099H66.54V25.0699C66.54 24.0432 66.5133 22.9899 66.46 21.9099H68.34L68.46 23.4299C68.7823 22.9347 69.216 22.5217 69.7264 22.2239C70.2368 21.9262 70.8097 21.7518 71.3995 21.7149C71.9892 21.678 72.5795 21.7795 73.123 22.0113C73.6665 22.2431 74.1484 22.5988 74.53 23.0499C75.3358 24.0493 75.7516 25.3072 75.7 26.5899ZM73.53 26.6699C73.5608 25.8536 73.3409 25.0475 72.9 24.3599C72.6906 24.0527 72.4061 23.8041 72.0735 23.6378C71.7409 23.4716 71.3714 23.3931 71 23.4099C70.4769 23.4094 69.9705 23.5935 69.57 23.9299C69.1421 24.2776 68.8457 24.7609 68.73 25.2999C68.6717 25.512 68.6381 25.7301 68.63 25.9499V27.5499C68.6118 28.1996 68.8405 28.8321 69.27 29.3199C69.4882 29.5566 69.7572 29.7408 70.0569 29.8586C70.3565 29.9764 70.679 30.0247 71 29.9999C71.3662 30.0155 71.7305 29.9384 72.0592 29.7759C72.3878 29.6133 72.6701 29.3705 72.88 29.0699C73.3411 28.357 73.5683 27.5181 73.53 26.6699Z" fill="white"/>
<path d="M88 27.7699C88.0168 28.2882 87.9199 28.8039 87.7161 29.2807C87.5122 29.7575 87.2063 30.1839 86.82 30.5299C85.8025 31.3596 84.5106 31.7771 83.2 31.6999C81.9945 31.7567 80.7978 31.4688 79.75 30.8699L80.24 29.0899C81.1677 29.654 82.2343 29.9483 83.32 29.9399C83.9902 29.9822 84.6544 29.7914 85.2 29.3999C85.4169 29.2271 85.5905 29.006 85.7068 28.7542C85.8231 28.5025 85.879 28.227 85.87 27.9499C85.8759 27.6977 85.8301 27.4469 85.7356 27.213C85.641 26.9791 85.4996 26.7671 85.32 26.5899C84.7818 26.1338 84.1555 25.7934 83.48 25.5899C81.16 24.6965 80 23.4132 80 21.7399C79.9824 21.2176 80.0861 20.6984 80.303 20.2229C80.5199 19.7475 80.844 19.3289 81.25 18.9999C82.1789 18.2813 83.3379 17.9258 84.51 17.9999C85.5461 17.9661 86.575 18.1822 87.51 18.6299L87 20.3699C86.2154 19.9537 85.338 19.7438 84.45 19.7599C83.8156 19.7201 83.1889 19.916 82.69 20.3099C82.5209 20.4603 82.386 20.6452 82.2946 20.8523C82.2031 21.0593 82.1572 21.2836 82.16 21.5099C82.1557 21.7587 82.2084 22.0053 82.3141 22.2307C82.4199 22.456 82.5758 22.6541 82.77 22.8099C83.3596 23.2439 84.0144 23.5814 84.71 23.8099C85.6671 24.1472 86.5331 24.7017 87.24 25.4299C87.7783 26.0867 88.0496 26.9221 88 27.7699Z" fill="white"/>
<path d="M95.0905 23.51H92.7405V28.17C92.7405 29.3567 93.1538 29.95 93.9805 29.95C94.3001 29.9569 94.6193 29.9233 94.9305 29.85L95.0005 31.46C94.4654 31.6362 93.9036 31.7174 93.3405 31.7C92.9713 31.7238 92.6013 31.6673 92.256 31.5344C91.9107 31.4015 91.5984 31.1953 91.3405 30.93C90.7948 30.1827 90.5421 29.2612 90.6305 28.34V23.51H89.2305V21.91H90.6305V20.15L92.7205 19.52V21.91H95.0705L95.0905 23.51Z" fill="white"/>
<path d="M105.69 26.6302C105.743 27.9558 105.293 29.2524 104.43 30.2602C103.986 30.7457 103.44 31.128 102.832 31.3802C102.224 31.6324 101.568 31.7485 100.91 31.7202C100.282 31.7474 99.6551 31.6361 99.0744 31.3942C98.4938 31.1523 97.9734 30.7856 97.5503 30.3202C96.701 29.3446 96.2542 28.0828 96.3003 26.7902C96.2455 25.453 96.7074 24.146 97.5903 23.1402C98.0324 22.665 98.5728 22.2918 99.1738 22.0466C99.7747 21.8014 100.422 21.69 101.07 21.7202C101.705 21.6932 102.337 21.8044 102.924 22.0461C103.511 22.2878 104.039 22.6543 104.47 23.1202C105.313 24.09 105.75 25.3469 105.69 26.6302ZM103.48 26.7002C103.505 25.9021 103.307 25.1129 102.91 24.4202C102.731 24.0693 102.457 23.7755 102.12 23.5723C101.782 23.3691 101.394 23.2644 101 23.2702C100.592 23.2508 100.186 23.3488 99.832 23.5526C99.4776 23.7564 99.1889 24.0574 99.0003 24.4202C98.5999 25.1261 98.4027 25.9291 98.4303 26.7402C98.4091 27.5315 98.6063 28.3135 99.0003 29.0002C99.1859 29.3495 99.4632 29.6418 99.8023 29.8456C100.141 30.0494 100.53 30.157 100.925 30.157C101.321 30.157 101.709 30.0494 102.048 29.8456C102.387 29.6418 102.665 29.3495 102.85 29.0002C103.271 28.3076 103.49 27.5107 103.48 26.7002Z" fill="white"/>
<path d="M112.62 23.78C112.399 23.7397 112.174 23.7196 111.95 23.72C111.611 23.7027 111.274 23.7717 110.97 23.9204C110.666 24.069 110.404 24.2926 110.21 24.57C109.837 25.1314 109.651 25.7966 109.68 26.47V31.47H107.55V24.9C107.55 23.7933 107.523 22.7933 107.47 21.9H109.33L109.41 23.74H109.47C109.672 23.1407 110.044 22.6129 110.54 22.22C110.985 21.8888 111.525 21.71 112.08 21.71C112.256 21.6963 112.433 21.6963 112.61 21.71L112.62 23.78Z" fill="white"/>
<path d="M122.16 26.2499C122.167 26.5851 122.14 26.9201 122.08 27.2499H115.68C115.667 27.6577 115.743 28.0635 115.903 28.4385C116.064 28.8136 116.306 29.1486 116.61 29.4199C117.205 29.885 117.946 30.1226 118.7 30.0899C119.584 30.1031 120.463 29.9505 121.29 29.6399L121.62 31.1199C120.599 31.5364 119.503 31.7373 118.4 31.7099C117.756 31.7463 117.112 31.6487 116.508 31.4232C115.904 31.1977 115.353 30.8492 114.89 30.3999C114.456 29.9265 114.12 29.3716 113.902 28.7673C113.684 28.163 113.588 27.5215 113.62 26.8799C113.575 25.5734 113.997 24.2936 114.81 23.2699C115.21 22.7675 115.723 22.3662 116.306 22.0987C116.89 21.8312 117.529 21.7048 118.17 21.7299C118.782 21.6966 119.391 21.8208 119.941 22.0904C120.491 22.36 120.962 22.7661 121.31 23.2699C121.89 24.1535 122.187 25.1932 122.16 26.2499ZM120.16 25.6999C120.19 25.1246 120.047 24.5537 119.75 24.0599C119.575 23.771 119.323 23.5356 119.024 23.3787C118.724 23.2219 118.388 23.1497 118.05 23.1699C117.717 23.1617 117.387 23.2369 117.09 23.3889C116.793 23.5408 116.539 23.7646 116.35 24.0399C115.987 24.5222 115.768 25.098 115.72 25.6999H120.16Z" fill="white"/>
<path d="M43.4202 7.27024C43.6634 7.12852 43.9217 7.01448 44.1902 6.93024C44.5143 6.83208 44.8517 6.78485 45.1902 6.79024C45.721 6.76234 46.2448 6.92159 46.6702 7.24024C46.8473 7.38456 46.9883 7.56814 47.082 7.77644C47.1757 7.98474 47.2196 8.21202 47.2102 8.44024C47.2201 8.80696 47.0916 9.16397 46.8502 9.44024C46.6042 9.71286 46.279 9.90168 45.9202 9.98024C46.1234 10.0112 46.3217 10.0683 46.5102 10.1502C46.692 10.2257 46.8581 10.3342 47.0002 10.4702C47.14 10.6076 47.252 10.7706 47.3302 10.9502C47.4119 11.1396 47.4528 11.344 47.4502 11.5502C47.4604 11.8679 47.3844 12.1823 47.2302 12.4602C47.0885 12.7011 46.8936 12.9064 46.6602 13.0602C46.4188 13.2167 46.1512 13.3285 45.8702 13.3902C45.5849 13.4563 45.2931 13.4898 45.0002 13.4902C44.6909 13.4889 44.3826 13.4554 44.0802 13.3902C43.7851 13.3285 43.5016 13.2205 43.2402 13.0702L43.5002 12.2602C43.7095 12.3589 43.927 12.4392 44.1502 12.5002C44.413 12.5793 44.6858 12.6197 44.9602 12.6202C45.3179 12.6364 45.6705 12.5307 45.9602 12.3202C46.1435 12.16 46.2685 11.9435 46.3156 11.7046C46.3626 11.4657 46.3291 11.218 46.2202 11.0002C46.1244 10.854 45.9938 10.7338 45.8402 10.6502C45.6776 10.565 45.5018 10.5076 45.3202 10.4802C45.1306 10.4644 44.9399 10.4644 44.7502 10.4802H44.3102V9.68024H44.7502C44.9399 9.68182 45.1286 9.65485 45.3102 9.60024C45.4721 9.55415 45.6245 9.47966 45.7602 9.38024C45.8849 9.29137 45.9876 9.17505 46.0602 9.04024C46.1339 8.90537 46.1717 8.75389 46.1702 8.60024C46.1753 8.47055 46.1499 8.34147 46.0961 8.22338C46.0423 8.10528 45.9615 8.00146 45.8602 7.92024C45.6149 7.73056 45.3099 7.6348 45.0002 7.65024C44.7554 7.65217 44.5124 7.69266 44.2802 7.77024C44.0617 7.83964 43.8479 7.92315 43.6402 8.02024L43.4202 7.27024Z" fill="white"/>
<path d="M51.7601 13.4302L51.6802 12.8902C51.5224 13.1048 51.3136 13.2767 51.0726 13.3902C50.8316 13.5037 50.5661 13.5552 50.3001 13.5402C50.1015 13.5415 49.9045 13.5041 49.7202 13.4302C49.5497 13.3638 49.3935 13.2653 49.2601 13.1402C49.1304 13.0161 49.0282 12.8662 48.9601 12.7002C48.887 12.526 48.8496 12.339 48.8501 12.1502C48.838 11.8853 48.8987 11.6223 49.0257 11.3895C49.1526 11.1568 49.3409 10.9633 49.5702 10.8302C50.1859 10.5084 50.8762 10.3565 51.5701 10.3902V10.3002C51.5701 9.68015 51.2368 9.37015 50.5702 9.37015C50.1345 9.36184 49.7062 9.48371 49.3402 9.72015L49.1602 9.00015C49.6504 8.71281 50.2122 8.57063 50.7801 8.59015C52.0135 8.59015 52.6302 9.24015 52.6302 10.5402V12.2802C52.6235 12.6581 52.6469 13.0359 52.7002 13.4102H51.7601V13.4302ZM51.6102 11.0802C51.1624 11.0526 50.7143 11.1278 50.3001 11.3002C50.1641 11.3654 50.0506 11.4697 49.974 11.5997C49.8974 11.7297 49.8613 11.8795 49.8701 12.0302C49.8625 12.1308 49.8764 12.2319 49.9108 12.3267C49.9453 12.4216 49.9996 12.508 50.0702 12.5802C50.2108 12.7032 50.3934 12.7677 50.5802 12.7602C50.7228 12.7704 50.8661 12.75 51.0002 12.7002C51.1185 12.6544 51.2271 12.5865 51.3201 12.5002C51.4162 12.4127 51.4943 12.3074 51.5501 12.1902C51.6086 12.0719 51.6393 11.942 51.6401 11.8102L51.6102 11.0802Z" fill="white"/>
<path d="M57.6797 8.72021V9.58021H55.6797V13.4302H54.6797V8.72021H57.6797Z" fill="white"/>
<path d="M63.68 11C63.6825 11.3391 63.6319 11.6765 63.53 12C63.4391 12.2917 63.2931 12.5632 63.1 12.8C62.917 13.0224 62.6862 13.2009 62.4248 13.3221C62.1634 13.4432 61.8781 13.504 61.59 13.5C61.3268 13.5208 61.0629 13.4695 60.8268 13.3514C60.5906 13.2333 60.3912 13.053 60.25 12.83V15.31H59.25V10.27C59.25 10.0166 59.25 9.76328 59.25 9.50995C59.25 9.24995 59.25 8.98995 59.25 8.71995H60.17L60.23 9.46995C60.3942 9.19917 60.6288 8.97803 60.9089 8.8301C61.1889 8.68217 61.5038 8.613 61.82 8.62995C62.0863 8.62659 62.3498 8.68477 62.59 8.79995C62.8289 8.91777 63.0402 9.08475 63.21 9.28995C63.3926 9.51565 63.5317 9.77338 63.62 10.05C63.6904 10.3614 63.7107 10.6821 63.68 11ZM62.61 11C62.6124 10.784 62.5855 10.5687 62.53 10.36C62.4822 10.1796 62.4008 10.01 62.29 9.85995C62.1857 9.72279 62.0525 9.61015 61.9 9.52995C61.7519 9.45825 61.5895 9.42101 61.425 9.42101C61.2605 9.42101 61.0981 9.45825 60.95 9.52995C60.8112 9.59217 60.6856 9.68043 60.58 9.78995C60.3545 10.0314 60.2293 10.3496 60.23 10.68V11.47C60.2278 11.6334 60.2549 11.796 60.31 11.95C60.3605 12.0937 60.4387 12.2262 60.54 12.34C60.6401 12.4513 60.7628 12.5399 60.9 12.6C61.0453 12.6621 61.202 12.6927 61.36 12.69C61.5386 12.6969 61.7162 12.6595 61.8767 12.5809C62.0373 12.5024 62.1759 12.3852 62.28 12.24C62.5107 11.8908 62.6262 11.4781 62.61 11.06V11Z" fill="white"/>
<path d="M69.3103 8.72021L68.1103 12.0002C67.8792 12.6557 67.6018 13.294 67.2803 13.9102C67.0826 14.3118 66.8227 14.6797 66.5103 15.0002C66.1906 15.3018 65.7918 15.5065 65.3603 15.5902L65.1103 14.7102C65.3984 14.6303 65.6649 14.4868 65.8903 14.2902C66.1401 14.0751 66.3413 13.8092 66.4803 13.5102C66.5202 13.446 66.5473 13.3747 66.5603 13.3002C66.5499 13.2246 66.5297 13.1506 66.5003 13.0802L64.7803 8.72021H65.9303L66.8203 11.3502C66.8203 11.4702 66.9103 11.6102 66.9603 11.7702L67.1103 12.2802C67.1103 12.1802 67.1803 12.0502 67.2203 11.8902C67.2603 11.7302 67.3103 11.5502 67.3703 11.3402L68.1703 8.72021H69.2903H69.3103Z" fill="white"/>
<path d="M71.12 10.6802H71.6C71.886 10.6981 72.171 10.6321 72.42 10.4902C72.5056 10.442 72.5773 10.3724 72.6281 10.2883C72.6789 10.2042 72.7071 10.1084 72.71 10.0102C72.7125 9.91693 72.6908 9.82461 72.6469 9.74224C72.6031 9.65988 72.5387 9.59026 72.46 9.54019C72.2572 9.41186 72.0198 9.34902 71.78 9.36019C71.5864 9.36003 71.3941 9.3904 71.21 9.45019C71.0263 9.50963 70.8489 9.58665 70.68 9.68019L70.42 9.00019C70.6729 8.85684 70.946 8.75234 71.23 8.69019C71.4838 8.64205 71.7417 8.61861 72 8.62019C72.2181 8.61917 72.4358 8.63927 72.65 8.68019C72.854 8.7161 73.0503 8.78716 73.23 8.89019C73.3949 8.98686 73.5352 9.12033 73.64 9.28019C73.7515 9.45998 73.8072 9.66877 73.8 9.88019C73.8019 10.0155 73.771 10.1493 73.71 10.2702C73.6531 10.3839 73.575 10.4857 73.48 10.5702C73.3847 10.6562 73.2768 10.727 73.16 10.7802C73.0447 10.8332 72.924 10.8734 72.8 10.9002C72.9544 10.9213 73.1056 10.9616 73.25 11.0202C73.3906 11.0774 73.522 11.1548 73.64 11.2502C73.7545 11.3442 73.8497 11.4597 73.92 11.5902C73.9914 11.7295 74.0291 11.8837 74.03 12.0402C74.0409 12.289 73.9707 12.5347 73.83 12.7402C73.695 12.9295 73.5167 13.0837 73.31 13.1902C73.0929 13.3034 72.8605 13.3843 72.62 13.4302C72.3761 13.4768 72.1283 13.5002 71.88 13.5002C71.591 13.5007 71.3027 13.4705 71.02 13.4102C70.7501 13.3533 70.4904 13.2555 70.25 13.1202L70.52 12.4302C70.7041 12.5283 70.8987 12.6055 71.1 12.6602C71.3148 12.7202 71.5369 12.7505 71.76 12.7502C72.0486 12.7678 72.3354 12.6944 72.58 12.5402C72.6675 12.4841 72.7397 12.4073 72.7903 12.3166C72.8409 12.2259 72.8683 12.1241 72.87 12.0202C72.8723 11.8993 72.8374 11.7806 72.77 11.6802C72.7009 11.5819 72.608 11.5028 72.5 11.4502C72.3707 11.3884 72.2322 11.3478 72.09 11.3302C71.9236 11.3181 71.7564 11.3181 71.59 11.3302H71.1L71.12 10.6802Z" fill="white"/>
<path d="M76.7097 8.72021V10.3902C76.7097 10.7702 76.7097 11.1202 76.7097 11.3902C76.7097 11.6602 76.7097 12.0102 76.7097 12.3902L77.0697 11.6702L77.4297 10.9502L78.5897 8.72021H79.9497V13.4302H78.9497V11.7602C78.9497 11.4102 78.9497 11.0602 78.9497 10.7602C78.9497 10.4602 78.9497 10.0602 78.9997 9.70021C78.9048 9.95984 78.7946 10.2136 78.6697 10.4602L78.3397 11.1202L77.7397 12.2802C77.5397 12.6669 77.3331 13.0635 77.1197 13.4702H75.7197V8.72021H76.7097Z" fill="white"/>
<path d="M85.4398 8.72021V9.58021H83.9998V13.4302H82.9998V9.58021H81.5498V8.72021H85.4398Z" fill="white"/>
<path d="M90.7896 10.8502C90.7896 10.9402 90.7896 11.0302 90.7896 11.1102C90.7942 11.1834 90.7942 11.2569 90.7896 11.3302H87.6096C87.6084 11.5166 87.6451 11.7013 87.7172 11.8731C87.7894 12.045 87.8957 12.2005 88.0296 12.3302C88.3248 12.5798 88.7035 12.7084 89.0896 12.6902C89.5229 12.6956 89.9534 12.621 90.3596 12.4702L90.5196 13.2002C90.018 13.4027 89.4805 13.5013 88.9396 13.4902C88.5985 13.4969 88.2593 13.4393 87.9396 13.3202C87.6603 13.2172 87.4075 13.0532 87.1996 12.8402C86.9955 12.6251 86.8388 12.3696 86.7396 12.0902C86.6274 11.7689 86.5732 11.4303 86.5796 11.0902C86.5776 10.7503 86.6316 10.4124 86.7396 10.0902C86.8383 9.79772 86.9909 9.52637 87.1896 9.29016C87.3832 9.06636 87.6217 8.88579 87.8896 8.76016C88.1784 8.62946 88.4926 8.56457 88.8096 8.57016C89.0878 8.56657 89.3637 8.62107 89.6196 8.73016C89.8586 8.83422 90.0707 8.99157 90.2396 9.19016C90.4167 9.39774 90.5494 9.63937 90.6296 9.90016C90.7361 10.2055 90.7902 10.5267 90.7896 10.8502ZM89.7896 10.5802C89.8043 10.2582 89.7091 9.94083 89.5196 9.68016C89.4276 9.56631 89.3097 9.47607 89.1758 9.41693C89.0418 9.3578 88.8957 9.33148 88.7496 9.34016C88.6018 9.33722 88.4552 9.36708 88.3203 9.4276C88.1854 9.48812 88.0657 9.57779 87.9696 9.69016C87.7504 9.93723 87.6202 10.2505 87.5996 10.5802H89.7896Z" fill="white"/>
<path d="M95 8.75979C95.19 8.75979 95.43 8.69979 95.72 8.67979C96.01 8.65979 96.31 8.67979 96.61 8.67979C96.91 8.67979 97.02 8.67979 97.26 8.67979C97.4956 8.69925 97.7276 8.74969 97.95 8.82979C98.1597 8.90373 98.3483 9.02724 98.5 9.18979C98.655 9.37355 98.7338 9.60975 98.72 9.84979C98.7207 9.9807 98.6934 10.1103 98.64 10.2298C98.5891 10.3419 98.5179 10.4436 98.43 10.5298C98.3419 10.6154 98.2406 10.6863 98.13 10.7398C98.0189 10.7944 97.9013 10.8347 97.78 10.8598C98.0858 10.903 98.3734 11.0312 98.61 11.2298C98.7284 11.3209 98.8249 11.4373 98.8924 11.5705C98.9598 11.7038 98.9966 11.8505 99 11.9998C99.0162 12.2882 98.9194 12.5716 98.73 12.7898C98.5449 12.9878 98.3152 13.1386 98.06 13.2298C97.7896 13.3298 97.5071 13.3936 97.22 13.4198C96.93 13.4198 96.66 13.4198 96.43 13.4198H95.67H95.05L95 8.75979ZM96 10.6398H96.53C96.6831 10.6516 96.8369 10.6516 96.99 10.6398C97.1209 10.6198 97.2487 10.5829 97.37 10.5298C97.4712 10.4893 97.5606 10.4239 97.63 10.3398C97.6927 10.2527 97.7244 10.147 97.72 10.0398C97.7249 9.94378 97.7021 9.84838 97.6542 9.76503C97.6063 9.68167 97.5354 9.61388 97.45 9.56979C97.1863 9.45242 96.898 9.40094 96.61 9.41979H96.32H95.99L96 10.6398ZM96 12.7298H96.32H96.63C96.7765 12.7397 96.9235 12.7397 97.07 12.7298C97.2113 12.7134 97.3495 12.6764 97.48 12.6198C97.5933 12.5714 97.6929 12.4958 97.77 12.3998C97.8619 12.2874 97.9082 12.1447 97.9 11.9998C97.9078 11.8802 97.877 11.7613 97.8122 11.6605C97.7474 11.5597 97.652 11.4823 97.54 11.4398C97.2204 11.3222 96.8801 11.2711 96.54 11.2898H96V12.6998V12.7298Z" fill="white"/>
</g>
<defs>
<clipPath id="clip0_3_4998">
<rect width="135" height="40" fill="white"/>
</clipPath>
</defs>
</svg>
