<svg width="135" height="40" viewBox="0 0 135 40" fill="none" xmlns="http://www.w3.org/2000/svg">
<g clip-path="url(#clip0_3_4978)">
<path d="M130.2 39.5H4.73105C3.60963 39.4976 2.53482 39.0511 1.74186 38.2581C0.949012 37.4653 0.502497 36.3907 0.5 35.2695V4.73C0.5 3.60813 0.945659 2.53222 1.73894 1.73894C2.53222 0.945659 3.60813 0.5 4.73 0.5L130.2 0.5C131.33 0.49988 132.414 0.944296 133.219 1.73719C134.023 2.52937 134.483 3.60581 134.5 4.73422V35.2658C134.483 36.3942 134.023 37.4706 133.219 38.2628C132.414 39.0557 131.33 39.5001 130.2 39.5Z" fill="black" stroke="#7F7F7F"/>
<path d="M68.1401 21.7501C67.3004 21.7541 66.4807 22.0067 65.7844 22.4761C65.0881 22.9455 64.5465 23.6106 64.2279 24.3875C63.9093 25.1644 63.828 26.0183 63.9942 26.8414C64.1605 27.6645 64.5668 28.4199 65.162 29.0123C65.7571 29.6047 66.5144 30.0075 67.3383 30.1699C68.1622 30.3322 69.0157 30.2469 69.7911 29.9247C70.5665 29.6024 71.2291 29.0577 71.6952 28.3592C72.1613 27.6607 72.4101 26.8398 72.4101 26.0001C72.4183 25.4381 72.3132 24.8801 72.1013 24.3595C71.8893 23.8388 71.5748 23.3662 71.1764 22.9696C70.7779 22.5731 70.3038 22.2607 69.7822 22.0512C69.2606 21.8417 68.7021 21.7393 68.1401 21.7501ZM68.1401 28.5801C67.6237 28.6162 67.1083 28.4962 66.6611 28.2355C66.2138 27.9748 65.8553 27.5857 65.6321 27.1186C65.409 26.6514 65.3315 26.128 65.4098 25.6163C65.4881 25.1045 65.7185 24.6282 66.0711 24.2492C66.4237 23.8701 66.8821 23.6059 67.3869 23.4909C67.8916 23.3759 68.4193 23.4154 68.9013 23.6042C69.3833 23.7931 69.7973 24.1225 70.0896 24.5498C70.3819 24.9771 70.5388 25.4824 70.5401 26.0001C70.5562 26.3281 70.5065 26.6561 70.3938 26.9645C70.2812 27.273 70.1079 27.5558 69.8842 27.7963C69.6606 28.0368 69.391 28.23 69.0914 28.3646C68.7919 28.4992 68.4684 28.5725 68.1401 28.5801ZM58.8301 21.7501C57.99 21.7521 57.1692 22.003 56.4717 22.4712C55.7741 22.9394 55.2309 23.6039 54.9107 24.3806C54.5906 25.1574 54.5079 26.0116 54.673 26.8354C54.8381 27.6591 55.2437 28.4155 55.8384 29.0088C56.4332 29.6022 57.1905 30.006 58.0146 30.1692C58.8388 30.3323 59.6928 30.2476 60.4688 29.9256C61.2448 29.6037 61.908 29.0589 62.3745 28.3602C62.8411 27.6616 63.0901 26.8403 63.0901 26.0001C63.0983 25.4381 62.9932 24.8801 62.7813 24.3595C62.5693 23.8388 62.2548 23.3662 61.8564 22.9696C61.4579 22.5731 60.9838 22.2607 60.4622 22.0512C59.9406 21.8417 59.3821 21.7393 58.8201 21.7501H58.8301ZM58.8301 28.5801C58.3134 28.6183 57.7972 28.5 57.3487 28.2407C56.9002 27.9814 56.5402 27.593 56.3155 27.1262C56.0907 26.6594 56.0118 26.1358 56.0888 25.6234C56.1658 25.1111 56.3953 24.6339 56.7474 24.2538C57.0995 23.8737 57.5578 23.6085 58.0628 23.4925C58.5677 23.3766 59.0959 23.4154 59.5785 23.6038C60.0611 23.7922 60.4757 24.1216 60.7685 24.549C61.0613 24.9764 61.2187 25.482 61.2201 26.0001C61.2362 26.3281 61.1865 26.6561 61.0738 26.9645C60.9612 27.273 60.7879 27.5558 60.5642 27.7963C60.3406 28.0368 60.071 28.23 59.7714 28.3646C59.4719 28.4992 59.1484 28.5725 58.8201 28.5801H58.8301ZM47.7401 23.0601V24.8601H52.0601C51.9924 25.7079 51.6399 26.5079 51.0601 27.1301C50.6279 27.5704 50.1083 27.9152 49.5348 28.1426C48.9613 28.3699 48.3465 28.4747 47.7301 28.4501C46.4571 28.4501 45.2362 27.9444 44.336 27.0442C43.4358 26.1441 42.9301 24.9232 42.9301 23.6501C42.9301 22.3771 43.4358 21.1562 44.336 20.256C45.2362 19.3558 46.4571 18.8501 47.7301 18.8501C48.9479 18.8303 50.1239 19.2942 51.0001 20.1401L52.2701 18.8701C51.6786 18.2711 50.9728 17.797 50.1947 17.4758C49.4166 17.1546 48.5819 16.9928 47.7401 17.0001C46.8511 16.9655 45.9643 17.1107 45.1327 17.4271C44.3012 17.7434 43.5421 18.2244 42.9009 18.8411C42.2596 19.4579 41.7495 20.1977 41.4011 21.0163C41.0527 21.8349 40.873 22.7154 40.873 23.6051C40.873 24.4948 41.0527 25.3753 41.4011 26.1939C41.7495 27.0125 42.2596 27.7524 42.9009 28.3691C43.5421 28.9859 44.3012 29.4668 45.1327 29.7831C45.9643 30.0995 46.8511 30.2447 47.7401 30.2101C48.5961 30.2488 49.4504 30.1037 50.2455 29.7846C51.0407 29.4655 51.7583 28.9798 52.3501 28.3601C53.3978 27.209 53.9571 25.6959 53.9101 24.1401C53.9133 23.7611 53.8798 23.3827 53.8101 23.0101L47.7401 23.0601ZM93.0501 24.4601C92.7893 23.6929 92.3016 23.0229 91.6516 22.539C91.0016 22.055 90.2199 21.7799 89.4101 21.7501C88.8631 21.749 88.3217 21.8602 87.8193 22.0767C87.317 22.2931 86.8644 22.6103 86.4895 23.0087C86.1146 23.407 85.8254 23.878 85.6397 24.3925C85.4541 24.907 85.3759 25.4542 85.4101 26.0001C85.3979 26.559 85.4986 27.1147 85.706 27.6338C85.9133 28.153 86.2232 28.625 86.6171 29.0217C87.0111 29.4184 87.4809 29.7316 87.9985 29.9427C88.5162 30.1538 89.0711 30.2583 89.6301 30.2501C90.3296 30.2539 91.0191 30.0841 91.6369 29.756C92.2547 29.4279 92.7815 28.9518 93.1701 28.3701L91.7201 27.3701C91.5037 27.7309 91.1973 28.0293 90.8309 28.2362C90.4646 28.443 90.0508 28.5512 89.6301 28.5501C89.1969 28.5666 88.7688 28.4524 88.4014 28.2224C88.034 27.9923 87.7444 27.657 87.5701 27.2601L93.2601 24.9101L93.0501 24.4601ZM87.2501 25.8801C87.2298 25.5708 87.2715 25.2606 87.3726 24.9676C87.4737 24.6745 87.6323 24.4047 87.8391 24.1737C88.0458 23.9428 88.2966 23.7554 88.5766 23.6225C88.8567 23.4897 89.1604 23.4141 89.4701 23.4001C89.7927 23.3789 90.1144 23.4528 90.3953 23.6128C90.6762 23.7728 90.9039 24.0118 91.0501 24.3001L87.2501 25.8801ZM82.6301 30.0001H84.5001V17.5001H82.6301V30.0001ZM79.5701 22.7001H79.5001C79.2183 22.385 78.873 22.133 78.487 21.9607C78.101 21.7884 77.6829 21.6996 77.2601 21.7001C76.1673 21.7531 75.1367 22.2245 74.3821 23.0167C73.6274 23.8089 73.2064 24.861 73.2064 25.9551C73.2064 27.0492 73.6274 28.1014 74.3821 28.8935C75.1367 29.6857 76.1673 30.1571 77.2601 30.2101C77.6839 30.2172 78.104 30.1314 78.491 29.9586C78.8781 29.7859 79.2225 29.5304 79.5001 29.2101H79.5601V29.8201C79.5601 31.4501 78.6901 32.3201 77.2901 32.3201C76.8238 32.3092 76.3713 32.1598 75.9902 31.8909C75.6091 31.622 75.3167 31.2458 75.1501 30.8101L73.5201 31.4901C73.8269 32.2365 74.3497 32.8742 75.0214 33.3214C75.6931 33.7686 76.4831 34.0049 77.2901 34.0001C79.4801 34.0001 81.2901 32.7101 81.2901 29.5701V22.0001H79.5701V22.7001ZM77.4301 28.5801C76.785 28.5233 76.1847 28.2268 75.7474 27.7493C75.31 27.2717 75.0675 26.6477 75.0675 26.0001C75.0675 25.3526 75.31 24.7285 75.7474 24.2509C76.1847 23.7734 76.785 23.477 77.4301 23.4201C77.7499 23.4365 78.0632 23.5168 78.3516 23.6562C78.6399 23.7955 78.8974 23.9912 79.1089 24.2316C79.3205 24.472 79.4818 24.7524 79.5833 25.0561C79.6848 25.3598 79.7245 25.6808 79.7001 26.0001C79.7274 26.3208 79.6893 26.6437 79.5883 26.9493C79.4872 27.2548 79.3252 27.5367 79.1121 27.7779C78.8989 28.0191 78.6391 28.2145 78.3483 28.3524C78.0575 28.4903 77.7417 28.5678 77.4201 28.5801H77.4301ZM101.81 17.5001H97.3301V30.0001H99.2001V25.2601H101.81C102.343 25.2984 102.878 25.2265 103.382 25.0488C103.886 24.8712 104.348 24.5916 104.739 24.2276C105.13 23.8636 105.442 23.4229 105.655 22.933C105.869 22.443 105.979 21.9144 105.979 21.3801C105.979 20.8458 105.869 20.3172 105.655 19.8273C105.442 19.3374 105.13 18.8967 104.739 18.5326C104.348 18.1686 103.886 17.889 103.382 17.7114C102.878 17.5337 102.343 17.4618 101.81 17.5001ZM101.81 23.5001H99.2001V19.2401H101.85C102.419 19.2401 102.965 19.4661 103.367 19.8684C103.769 20.2706 103.995 20.8162 103.995 21.3851C103.995 21.954 103.769 22.4996 103.367 22.9019C102.965 23.3041 102.419 23.5301 101.85 23.5301L101.81 23.5001ZM113.34 21.7001C112.659 21.6594 111.981 21.8185 111.39 22.1578C110.798 22.4972 110.319 23.0019 110.01 23.6101L111.67 24.3001C111.834 23.9985 112.082 23.7509 112.383 23.5876C112.685 23.4242 113.028 23.3521 113.37 23.3801C113.607 23.3524 113.848 23.3722 114.078 23.4384C114.307 23.5047 114.521 23.616 114.708 23.7658C114.894 23.9157 115.048 24.1011 115.162 24.3113C115.276 24.5215 115.346 24.7523 115.37 24.9901V25.1201C114.769 24.8021 114.1 24.6372 113.42 24.6401C111.63 24.6401 109.82 25.6401 109.82 27.4501C109.838 27.8361 109.933 28.2145 110.099 28.5632C110.266 28.9118 110.5 29.2235 110.789 29.4799C111.078 29.7363 111.416 29.9321 111.782 30.0558C112.148 30.1795 112.535 30.2286 112.92 30.2001C113.391 30.2339 113.862 30.1404 114.285 29.9292C114.707 29.7181 115.065 29.3971 115.32 29.0001H115.38V30.0001H117.18V25.1901C117.18 23.0001 115.52 21.7301 113.39 21.7301L113.34 21.7001ZM113.11 28.5501C112.5 28.5501 111.65 28.2401 111.65 27.4901C111.65 26.4901 112.71 26.1601 113.65 26.1601C114.244 26.1455 114.831 26.2905 115.35 26.5801C115.288 27.1215 115.031 27.6221 114.629 27.9896C114.227 28.3571 113.705 28.5668 113.16 28.5801L113.11 28.5501ZM123.74 22.0001L121.6 27.4201H121.54L119.32 22.0001H117.32L120.65 29.5801L118.75 33.7901H120.7L125.82 22.0001H123.74ZM106.93 30.0001H108.8V17.5001H106.93V30.0001Z" fill="white"/>
<path d="M10.4402 7.54022C10.1214 7.93427 9.96415 8.43465 10.0002 8.94021V31.0602C9.96973 31.5684 10.1342 32.0691 10.4602 32.4602L10.5302 32.5302L22.9002 20.1502V19.8602L10.5102 7.47021L10.4402 7.54022Z" fill="url(#paint0_linear_3_4978)"/>
<path d="M27.0004 24.2802L22.9004 20.1502V19.8602L27.0004 15.7202L27.0904 15.7702L32.0004 18.5602C33.4004 19.3502 33.4004 20.6502 32.0004 21.4502L27.1104 24.2302L27.0004 24.2802Z" fill="url(#paint1_linear_3_4978)"/>
<path d="M27.1204 24.22L22.9004 20L10.4404 32.46C10.7258 32.7109 11.0898 32.8541 11.4696 32.8651C11.8494 32.876 12.2211 32.754 12.5204 32.52L27.1304 24.22" fill="url(#paint2_linear_3_4978)"/>
<path d="M27.1197 15.78L12.5097 7.48005C12.2103 7.24606 11.8387 7.124 11.4589 7.13496C11.0791 7.14591 10.715 7.2892 10.4297 7.54005L22.8997 20L27.1197 15.78Z" fill="url(#paint3_linear_3_4978)"/>
<path opacity="0.2" d="M27.0004 24.1299L12.5104 32.3799C12.2217 32.5957 11.8709 32.7124 11.5104 32.7124C11.1499 32.7124 10.7991 32.5957 10.5104 32.3799L10.4404 32.4499L10.5104 32.5199C10.7985 32.7373 11.1495 32.8549 11.5104 32.8549C11.8713 32.8549 12.2224 32.7373 12.5104 32.5199L27.1204 24.2199L27.0004 24.1299Z" fill="black"/>
<path opacity="0.12" d="M10.4401 32.3199C10.1142 31.9288 9.9497 31.4281 9.98014 30.9199V31.0699C9.9497 31.5781 10.1142 32.0788 10.4401 32.4699L10.5101 32.3999L10.4401 32.3199Z" fill="black"/>
<path opacity="0.12" d="M32 21.3L27 24.13L27.09 24.22L32 21.44C32.2786 21.3091 32.5178 21.1071 32.6933 20.8543C32.8689 20.6014 32.9747 20.3068 33 20C32.9438 20.2787 32.8244 20.5408 32.651 20.7662C32.4777 20.9915 32.255 21.1742 32 21.3Z" fill="black"/>
<path opacity="0.25" d="M12.51 7.61998L32 18.7C32.255 18.8258 32.4777 19.0084 32.651 19.2338C32.8244 19.4592 32.9438 19.7213 33 20C32.9747 19.6932 32.8689 19.3985 32.6933 19.1457C32.5178 18.8929 32.2786 18.6909 32 18.56L12.51 7.47998C11.12 6.67998 10 7.33998 10 8.93998V9.08998C10 7.48998 11.12 6.82998 12.51 7.61998Z" fill="white"/>
<path d="M42.1101 14.27H41.3701V12.27H42.0001C42.2874 11.9656 42.5043 11.6018 42.6356 11.2044C42.767 10.807 42.8095 10.3856 42.7601 9.97V7H46.7601V12.26H47.4301V14.26H46.6901V13H42.1101V14.27ZM43.5001 10C43.5468 10.8066 43.3481 11.6085 42.9301 12.3H45.9301V7.74H43.5001V10Z" fill="white" stroke="white" stroke-width="0.2" stroke-miterlimit="10"/>
<path d="M53.4099 12.2202C52.8253 12.8016 52.0343 13.1279 51.2099 13.1279C50.3854 13.1279 49.5945 12.8016 49.0099 12.2202C48.7223 11.9277 48.4963 11.5806 48.3452 11.1993C48.194 10.818 48.1208 10.4103 48.1299 10.0002C48.1195 9.59087 48.1911 9.18357 48.3406 8.80231C48.49 8.42105 48.7141 8.07354 48.9999 7.78023C49.288 7.48997 49.6308 7.2596 50.0084 7.1024C50.3859 6.94519 50.7909 6.86426 51.1999 6.86426C51.6089 6.86426 52.0138 6.94519 52.3914 7.1024C52.769 7.2596 53.1117 7.48997 53.3999 7.78023C53.691 8.07105 53.9207 8.41745 54.0754 8.79882C54.23 9.18019 54.3063 9.58876 54.2999 10.0002C54.3076 10.411 54.2328 10.8191 54.08 11.2005C53.9271 11.5818 53.6992 11.9286 53.4099 12.2202ZM49.5799 11.7202C50.0128 12.1513 50.5989 12.3934 51.2099 12.3934C51.8209 12.3934 52.407 12.1513 52.8399 11.7202C53.0619 11.4936 53.2357 11.2244 53.3508 10.9288C53.466 10.6332 53.5201 10.3173 53.5099 10.0002C53.5201 9.68315 53.466 9.36729 53.3508 9.07169C53.2357 8.77608 53.0619 8.50685 52.8399 8.28022C52.407 7.8491 51.8209 7.60705 51.2099 7.60705C50.5989 7.60705 50.0128 7.8491 49.5799 8.28022C49.3597 8.50768 49.1877 8.77729 49.0743 9.07285C48.9609 9.36842 48.9084 9.68386 48.9199 10.0002C48.9084 10.3166 48.9609 10.632 49.0743 10.9276C49.1877 11.2232 49.3597 11.4928 49.5799 11.7202Z" fill="white" stroke="white" stroke-width="0.2" stroke-miterlimit="10"/>
<path d="M58.1804 13.13C57.7676 13.1382 57.3573 13.0628 56.9744 12.9082C56.5915 12.7537 56.2439 12.5233 55.9524 12.2309C55.6609 11.9384 55.4316 11.59 55.2783 11.2066C55.125 10.8232 55.0509 10.4128 55.0604 9.99999C55.0509 9.58719 55.125 9.17674 55.2783 8.79334C55.4316 8.40995 55.6609 8.06154 55.9524 7.7691C56.2439 7.47667 56.5915 7.24625 56.9744 7.09173C57.3573 6.93721 57.7676 6.86178 58.1804 6.86999C58.5988 6.85963 59.0141 6.94423 59.3952 7.11743C59.7762 7.29063 60.1131 7.54792 60.3804 7.86999L59.8404 8.38999C59.6429 8.13924 59.3882 7.9394 59.0977 7.80718C58.8071 7.67497 58.4892 7.61421 58.1704 7.62999C57.8634 7.62201 57.5581 7.67639 57.2727 7.78983C56.9874 7.90328 56.7281 8.07343 56.5104 8.28999C56.29 8.51525 56.1178 8.78305 56.0043 9.07705C55.8909 9.37104 55.8385 9.68508 55.8504 9.99999C55.837 10.3189 55.8896 10.6372 56.0049 10.9349C56.1202 11.2326 56.2957 11.5032 56.5204 11.73C56.7381 11.9466 56.9974 12.1167 57.2827 12.2301C57.5681 12.3436 57.8734 12.398 58.1804 12.39C58.5283 12.389 58.8717 12.3114 59.1862 12.1628C59.5008 12.0142 59.7787 11.7981 60.0004 11.53L60.5404 12.07C60.2682 12.4001 59.9268 12.6664 59.5404 12.85C59.1135 13.0433 58.6489 13.139 58.1804 13.13Z" fill="white" stroke="white" stroke-width="0.2" stroke-miterlimit="10"/>
<path d="M63.6805 13H62.9105V7.74H61.2305V7H65.3505V7.74H63.6805V13Z" fill="white" stroke="white" stroke-width="0.2" stroke-miterlimit="10"/>
<path d="M70.6501 7L68.3801 12.06C68.2893 12.3593 68.1077 12.623 67.8605 12.8147C67.6133 13.0064 67.3126 13.1166 67.0001 13.13C66.7934 13.1274 66.5894 13.0832 66.4001 13L66.6001 12.29C66.7216 12.3608 66.8595 12.3987 67.0001 12.4C67.1471 12.4111 67.2939 12.3761 67.4201 12.3C67.5406 12.198 67.6335 12.0673 67.6901 11.92L67.9101 11.44L65.8701 7H66.7801L68.2601 10.44L69.7401 7H70.6501Z" fill="white" stroke="white" stroke-width="0.2" stroke-miterlimit="10"/>
<path d="M71.5195 13V7H75.8595V13H75.0895V7.74H72.2895V13H71.5195Z" fill="white" stroke="white" stroke-width="0.2" stroke-miterlimit="10"/>
<path d="M77.2305 13V7H78.0005V9.57H81.0005V7H81.7705V13H81.0005V10.29H78.0005V13H77.2305Z" fill="white" stroke="white" stroke-width="0.2" stroke-miterlimit="10"/>
<path d="M88.0603 12.2202C87.4757 12.8016 86.6847 13.1279 85.8603 13.1279C85.0358 13.1279 84.2449 12.8016 83.6603 12.2202C83.3709 11.9286 83.1431 11.5818 82.9902 11.2005C82.8373 10.8191 82.7625 10.411 82.7703 10.0002C82.7612 9.59017 82.8344 9.18245 82.9856 8.80115C83.1367 8.41986 83.3627 8.07271 83.6503 7.78023C83.9384 7.48997 84.2812 7.2596 84.6588 7.1024C85.0363 6.94519 85.4413 6.86426 85.8503 6.86426C86.2593 6.86426 86.6642 6.94519 87.0418 7.1024C87.4194 7.2596 87.7621 7.48997 88.0503 7.78023C88.3396 8.07189 88.5675 8.41866 88.7204 8.79999C88.8732 9.18132 88.948 9.58946 88.9403 10.0002C88.9493 10.4103 88.8761 10.818 88.725 11.1993C88.5738 11.5806 88.3478 11.9277 88.0603 12.2202ZM84.2303 11.7202C84.6632 12.1513 85.2493 12.3934 85.8603 12.3934C86.4713 12.3934 87.0574 12.1513 87.4903 11.7202C87.7105 11.4928 87.8824 11.2232 87.9959 10.9276C88.1093 10.632 88.1618 10.3166 88.1503 10.0002C88.1605 9.68315 88.1064 9.36729 87.9912 9.07169C87.8761 8.77608 87.7023 8.50685 87.4803 8.28022C87.0474 7.8491 86.4613 7.60705 85.8503 7.60705C85.2393 7.60705 84.6532 7.8491 84.2203 8.28022C84.0001 8.50768 83.8281 8.77729 83.7147 9.07285C83.6013 9.36842 83.5488 9.68386 83.5603 10.0002C83.5501 10.3173 83.6042 10.6332 83.7193 10.9288C83.8345 11.2244 84.0083 11.4936 84.2303 11.7202Z" fill="white" stroke="white" stroke-width="0.2" stroke-miterlimit="10"/>
<path d="M92.0898 12.9998V6.99983H94.2598C94.7104 6.99132 95.1471 7.15596 95.4799 7.45983C95.6469 7.60484 95.7801 7.7848 95.87 7.98698C95.9599 8.18916 96.0042 8.40862 95.9998 8.62983C96.0045 8.89639 95.9278 9.15804 95.7798 9.37983C95.633 9.59526 95.4286 9.76505 95.1898 9.86983C95.4799 9.96585 95.7343 10.1471 95.9198 10.3898C96.1121 10.6348 96.2145 10.9384 96.2098 11.2498C96.215 11.4804 96.1692 11.7092 96.0759 11.92C95.9826 12.1309 95.8439 12.3186 95.6698 12.4698C95.3216 12.791 94.8635 12.9664 94.3898 12.9598L92.0898 12.9998ZM92.8598 9.56983H94.2598C94.3906 9.57528 94.521 9.55216 94.6419 9.50208C94.7627 9.45199 94.8713 9.37615 94.9598 9.27983C95.0484 9.19954 95.1198 9.10225 95.17 8.99375C95.2201 8.88526 95.2478 8.76777 95.2516 8.64832C95.2553 8.52886 95.2349 8.40988 95.1917 8.29846C95.1484 8.18704 95.0832 8.08548 94.9998 7.99983C94.9163 7.9053 94.8129 7.83032 94.6972 7.7802C94.5814 7.73008 94.456 7.70606 94.3298 7.70983H92.8598V9.56983ZM92.8598 12.2598H94.4099C94.5453 12.2644 94.6801 12.2389 94.8045 12.1853C94.929 12.1318 95.0401 12.0513 95.1298 11.9498C95.3062 11.767 95.4063 11.5238 95.4099 11.2698C95.4099 11.0046 95.3045 10.7503 95.117 10.5627C94.9294 10.3752 94.6751 10.2698 94.4099 10.2698H92.8598V12.2598Z" fill="white" stroke="white" stroke-width="0.2" stroke-miterlimit="10"/>
</g>
<defs>
<linearGradient id="paint0_linear_3_4978" x1="21.8002" y1="8.71022" x2="5.02018" y2="25.4902" gradientUnits="userSpaceOnUse">
<stop stop-color="#00A0FF"/>
<stop offset="0.01" stop-color="#00A1FF"/>
<stop offset="0.26" stop-color="#00BEFF"/>
<stop offset="0.51" stop-color="#00D2FF"/>
<stop offset="0.76" stop-color="#00DFFF"/>
<stop offset="1" stop-color="#00E3FF"/>
</linearGradient>
<linearGradient id="paint1_linear_3_4978" x1="33.8304" y1="20.0002" x2="9.64039" y2="20.0002" gradientUnits="userSpaceOnUse">
<stop stop-color="#FFE000"/>
<stop offset="0.41" stop-color="#FFBD00"/>
<stop offset="0.78" stop-color="#FFA500"/>
<stop offset="1" stop-color="#FF9C00"/>
</linearGradient>
<linearGradient id="paint2_linear_3_4978" x1="24.8304" y1="22.3" x2="2.07043" y2="45.05" gradientUnits="userSpaceOnUse">
<stop stop-color="#FF3A44"/>
<stop offset="1" stop-color="#C31162"/>
</linearGradient>
<linearGradient id="paint3_linear_3_4978" x1="7.29969" y1="0.180048" x2="17.4597" y2="10.34" gradientUnits="userSpaceOnUse">
<stop stop-color="#32A071"/>
<stop offset="0.07" stop-color="#2DA771"/>
<stop offset="0.48" stop-color="#15CF74"/>
<stop offset="0.8" stop-color="#06E775"/>
<stop offset="1" stop-color="#00F076"/>
</linearGradient>
<clipPath id="clip0_3_4978">
<rect width="135" height="40" fill="white"/>
</clipPath>
</defs>
</svg>
