<svg width="24" height="26" viewBox="0 0 24 26" fill="none" xmlns="http://www.w3.org/2000/svg">
<g filter="url(#filter0_d_3_5037)">
<path d="M0 9.6C0 6.23969 0 4.55953 0.653961 3.27606C1.2292 2.14708 2.14708 1.2292 3.27606 0.653961C4.55953 0 6.23969 0 9.6 0H14.4C17.7603 0 19.4405 0 20.7239 0.653961C21.8529 1.2292 22.7708 2.14708 23.346 3.27606C24 4.55953 24 6.23969 24 9.6V14.4C24 17.7603 24 19.4405 23.346 20.7239C22.7708 21.8529 21.8529 22.7708 20.7239 23.346C19.4405 24 17.7603 24 14.4 24H9.6C6.23969 24 4.55953 24 3.27606 23.346C2.14708 22.7708 1.2292 21.8529 0.653961 20.7239C0 19.4405 0 17.7603 0 14.4V9.6Z" fill="url(#paint0_linear_3_5037)"/>
</g>
<path d="M11.9998 9.79145C11.4141 9.79145 10.8524 10.0241 10.4383 10.4383C10.0241 10.8524 9.79145 11.4141 9.79145 11.9998C9.79145 12.5855 10.0241 13.1472 10.4383 13.5613C10.8524 13.9755 11.4141 14.2081 11.9998 14.2081C12.5855 14.2081 13.1472 13.9755 13.5613 13.5613C13.9755 13.1472 14.2081 12.5855 14.2081 11.9998C14.2081 11.4141 13.9755 10.8524 13.5613 10.4383C13.1472 10.0241 12.5855 9.79145 11.9998 9.79145ZM11.9998 8.31923C12.9759 8.31923 13.9121 8.707 14.6023 9.39724C15.2926 10.0875 15.6803 11.0236 15.6803 11.9998C15.6803 12.9759 15.2926 13.9121 14.6023 14.6023C13.9121 15.2926 12.9759 15.6803 11.9998 15.6803C11.0236 15.6803 10.0875 15.2926 9.39724 14.6023C8.707 13.9121 8.31923 12.9759 8.31923 11.9998C8.31923 11.0236 8.707 10.0875 9.39724 9.39724C10.0875 8.707 11.0236 8.31923 11.9998 8.31923ZM16.7845 8.1352C16.7845 8.37924 16.6876 8.61328 16.515 8.78584C16.3424 8.9584 16.1084 9.05534 15.8644 9.05534C15.6203 9.05534 15.3863 8.9584 15.2137 8.78584C15.0412 8.61328 14.9442 8.37924 14.9442 8.1352C14.9442 7.89116 15.0412 7.65712 15.2137 7.48456C15.3863 7.312 15.6203 7.21506 15.8644 7.21506C16.1084 7.21506 16.3424 7.312 16.515 7.48456C16.6876 7.65712 16.7845 7.89116 16.7845 8.1352ZM11.9998 6.11089C10.1786 6.11089 9.88126 6.11605 9.03399 6.15359C8.45688 6.18082 8.06969 6.25812 7.71046 6.39798C7.39099 6.52164 7.16059 6.6696 6.91546 6.91546C6.68507 7.13806 6.50792 7.40982 6.39724 7.71046C6.25738 8.07116 6.18009 8.45762 6.15359 9.03399C6.11531 9.84666 6.11089 10.1308 6.11089 11.9998C6.11089 13.8209 6.11605 14.1183 6.15359 14.9656C6.18082 15.542 6.25812 15.9299 6.39724 16.2884C6.52238 16.6086 6.6696 16.839 6.91399 17.0834C7.16206 17.3307 7.39246 17.4787 7.70899 17.6009C8.07263 17.7415 8.45983 17.8195 9.03399 17.846C9.84666 17.8843 10.1308 17.8887 11.9998 17.8887C13.8209 17.8887 14.1183 17.8835 14.9656 17.846C15.5412 17.8187 15.9291 17.7415 16.2884 17.6023C16.6071 17.4779 16.839 17.33 17.0834 17.0856C17.3314 16.8375 17.4794 16.6071 17.6016 16.2906C17.7415 15.9277 17.8195 15.5397 17.846 14.9656C17.8843 14.1529 17.8887 13.8688 17.8887 11.9998C17.8887 10.1786 17.8835 9.88126 17.846 9.03399C17.8187 8.45835 17.7415 8.06969 17.6016 7.71046C17.4907 7.41013 17.3138 7.13848 17.0841 6.91546C16.8616 6.68495 16.5898 6.50778 16.2891 6.39724C15.9284 6.25738 15.5412 6.18009 14.9656 6.15359C14.1529 6.11531 13.8688 6.11089 11.9998 6.11089ZM11.9998 4.63867C13.9998 4.63867 14.2493 4.64603 15.034 4.68284C15.818 4.71964 16.3517 4.84257 16.8213 5.02513C17.3071 5.2121 17.7164 5.46532 18.1257 5.87387C18.5 6.24185 18.7896 6.68697 18.9744 7.17826C19.1563 7.64716 19.2799 8.18158 19.3167 8.96553C19.3513 9.75023 19.3609 9.99977 19.3609 11.9998C19.3609 13.9998 19.3535 14.2493 19.3167 15.034C19.2799 15.818 19.1563 16.3517 18.9744 16.8213C18.7902 17.3129 18.5005 17.7581 18.1257 18.1257C17.7576 18.4999 17.3125 18.7895 16.8213 18.9744C16.3524 19.1563 15.818 19.2799 15.034 19.3167C14.2493 19.3513 13.9998 19.3609 11.9998 19.3609C9.99977 19.3609 9.75023 19.3535 8.96553 19.3167C8.18158 19.2799 7.64789 19.1563 7.17826 18.9744C6.68677 18.79 6.24157 18.5003 5.87387 18.1257C5.49949 17.7578 5.20984 17.3126 5.02513 16.8213C4.84257 16.3524 4.71964 15.818 4.68284 15.034C4.64824 14.2493 4.63867 13.9998 4.63867 11.9998C4.63867 9.99977 4.64603 9.75023 4.68284 8.96553C4.71964 8.18084 4.84257 7.64789 5.02513 7.17826C5.20933 6.68667 5.49904 6.24142 5.87387 5.87387C6.24168 5.49936 6.68685 5.20969 7.17826 5.02513C7.64789 4.84257 8.18084 4.71964 8.96553 4.68284C9.75023 4.64824 9.99977 4.63867 11.9998 4.63867Z" fill="white"/>
<defs>
<filter id="filter0_d_3_5037" x="0" y="0" width="24" height="25.4802" filterUnits="userSpaceOnUse" color-interpolation-filters="sRGB">
<feFlood flood-opacity="0" result="BackgroundImageFix"/>
<feColorMatrix in="SourceAlpha" type="matrix" values="0 0 0 0 0 0 0 0 0 0 0 0 0 0 0 0 0 0 127 0" result="hardAlpha"/>
<feOffset dy="1.48018"/>
<feColorMatrix type="matrix" values="0 0 0 0 0.7625 0 0 0 0 0.339948 0 0 0 0 0.479541 0 0 0 1 0"/>
<feBlend mode="normal" in2="BackgroundImageFix" result="effect1_dropShadow_3_5037"/>
<feBlend mode="normal" in="SourceGraphic" in2="effect1_dropShadow_3_5037" result="shape"/>
</filter>
<linearGradient id="paint0_linear_3_5037" x1="12" y1="-8.16666" x2="37.9818" y2="8.06137" gradientUnits="userSpaceOnUse">
<stop stop-color="#F9994F"/>
<stop offset="0.28125" stop-color="#F67F74"/>
<stop offset="0.546875" stop-color="#F885A6"/>
<stop offset="0.723577" stop-color="#FC94CC"/>
</linearGradient>
</defs>
</svg>
