<svg width="24" height="26" viewBox="0 0 24 26" fill="none" xmlns="http://www.w3.org/2000/svg">
<g filter="url(#filter0_d_3_5043)">
<path d="M0 9.6C0 6.23969 0 4.55953 0.653961 3.27606C1.2292 2.14708 2.14708 1.2292 3.27606 0.653961C4.55953 0 6.23969 0 9.6 0H14.4C17.7603 0 19.4405 0 20.7239 0.653961C21.8529 1.2292 22.7708 2.14708 23.346 3.27606C24 4.55953 24 6.23969 24 9.6V14.4C24 17.7603 24 19.4405 23.346 20.7239C22.7708 21.8529 21.8529 22.7708 20.7239 23.346C19.4405 24 17.7603 24 14.4 24H9.6C6.23969 24 4.55953 24 3.27606 23.346C2.14708 22.7708 1.2292 21.8529 0.653961 20.7239C0 19.4405 0 17.7603 0 14.4V9.6Z" fill="url(#paint0_linear_3_5043)"/>
</g>
<path d="M18.75 8.0814C18.28 8.30797 17.7762 8.4601 17.2466 8.52916C17.7871 8.17742 18.2025 7.6207 18.3972 6.95823C17.8924 7.28299 17.331 7.51928 16.7358 7.64659C16.2588 7.09418 15.5791 6.75 14.8269 6.75C13.3821 6.75 12.2105 8.02098 12.2105 9.58974C12.2105 9.812 12.2344 10.0289 12.2791 10.2371C10.1049 10.1184 8.17816 8.9877 6.88736 7.26897C6.6618 7.68975 6.53361 8.17742 6.53361 8.69747C6.53361 9.68253 6.99468 10.5521 7.69722 11.0625C7.26794 11.0474 6.86451 10.919 6.51175 10.7064C6.51175 10.7183 6.51175 10.7302 6.51175 10.742C6.51175 12.1188 7.41402 13.2657 8.60942 13.5278C8.39081 13.5926 8.15928 13.6271 7.9208 13.6271C7.75187 13.6271 7.58791 13.6098 7.42793 13.5753C7.76181 14.7028 8.72767 15.526 9.87141 15.5487C8.97709 16.3104 7.84925 16.7635 6.62304 16.7635C6.41139 16.7635 6.20371 16.7506 6 16.7236C7.15665 17.5307 8.53191 18 10.0095 18C14.821 18 17.4522 13.6724 17.4522 9.9199C17.4522 9.7969 17.4493 9.67282 17.4453 9.55198C17.956 9.1517 18.3992 8.65107 18.75 8.0814Z" fill="white"/>
<defs>
<filter id="filter0_d_3_5043" x="0" y="0" width="24" height="25.4802" filterUnits="userSpaceOnUse" color-interpolation-filters="sRGB">
<feFlood flood-opacity="0" result="BackgroundImageFix"/>
<feColorMatrix in="SourceAlpha" type="matrix" values="0 0 0 0 0 0 0 0 0 0 0 0 0 0 0 0 0 0 127 0" result="hardAlpha"/>
<feOffset dy="1.48018"/>
<feColorMatrix type="matrix" values="0 0 0 0 0.184722 0 0 0 0 0.463045 0 0 0 0 0.791667 0 0 0 1 0"/>
<feBlend mode="normal" in2="BackgroundImageFix" result="effect1_dropShadow_3_5043"/>
<feBlend mode="normal" in="SourceGraphic" in2="effect1_dropShadow_3_5043" result="shape"/>
</filter>
<linearGradient id="paint0_linear_3_5043" x1="24" y1="25.6" x2="0.0440186" y2="25.0687" gradientUnits="userSpaceOnUse">
<stop stop-color="#4790FE"/>
<stop offset="1" stop-color="#3DB5E9"/>
</linearGradient>
</defs>
</svg>
