<svg width="48" height="48" viewBox="0 0 48 48" fill="none" xmlns="http://www.w3.org/2000/svg">
<circle cx="24" cy="24" r="24" fill="#131315"/>
<mask id="mask0_3_4825" style="mask-type:alpha" maskUnits="userSpaceOnUse" x="12" y="12" width="24" height="24">
<rect x="12" y="12" width="24" height="24" fill="#D9D9D9"/>
</mask>
<g mask="url(#mask0_3_4825)">
<path d="M20.3003 32.1251C19.917 32.4251 19.5253 32.4334 19.1253 32.1501C18.7253 31.8668 18.592 31.4918 18.7253 31.0251L20.1503 26.4001L16.5253 23.8251C16.1253 23.5418 16.0046 23.1668 16.1633 22.7001C16.3213 22.2334 16.642 22.0001 17.1253 22.0001H21.6003L23.0503 17.2001C23.1336 16.9668 23.263 16.7874 23.4383 16.6621C23.613 16.5374 23.8003 16.4751 24.0003 16.4751C24.2003 16.4751 24.3876 16.5374 24.5623 16.6621C24.7376 16.7874 24.867 16.9668 24.9503 17.2001L26.4003 22.0001H30.8753C31.3586 22.0001 31.6796 22.2334 31.8383 22.7001C31.9963 23.1668 31.8753 23.5418 31.4753 23.8251L27.8503 26.4001L29.2753 31.0251C29.4086 31.4918 29.2753 31.8668 28.8753 32.1501C28.4753 32.4334 28.0836 32.4251 27.7003 32.1251L24.0003 29.3001L20.3003 32.1251Z" fill="#E64E9A"/>
</g>
</svg>
