<svg width="24" height="26" viewBox="0 0 24 26" fill="none" xmlns="http://www.w3.org/2000/svg">
<g filter="url(#filter0_d_3_5039)">
<path d="M0 9.59951C0 6.2392 0 4.55904 0.653961 3.27557C1.2292 2.1466 2.14708 1.22871 3.27606 0.653473C4.55953 -0.000488281 6.23968 -0.000488281 9.6 -0.000488281H14.4C17.7603 -0.000488281 19.4405 -0.000488281 20.7239 0.653473C21.8529 1.22871 22.7708 2.1466 23.346 3.27557C24 4.55904 24 6.2392 24 9.59951V14.3995C24 17.7598 24 19.44 23.346 20.7235C22.7708 21.8524 21.8529 22.7703 20.7239 23.3455C19.4405 23.9995 17.7603 23.9995 14.4 23.9995H9.6C6.23969 23.9995 4.55953 23.9995 3.27606 23.3455C2.14708 22.7703 1.2292 21.8524 0.653961 20.7235C0 19.44 0 17.7598 0 14.3995V9.59951Z" fill="url(#paint0_linear_3_5039)"/>
</g>
<path d="M18.6792 15.6964C18.662 15.6595 18.6472 15.6279 18.6324 15.6015C18.3985 15.151 17.9505 14.5951 17.2907 13.9391L17.276 13.9233L17.2686 13.9154L17.2612 13.9075H17.2538C16.9535 13.6019 16.7639 13.3964 16.6851 13.291C16.5399 13.0908 16.5079 12.888 16.5866 12.6825C16.6433 12.527 16.855 12.1977 17.2193 11.6971C17.4114 11.4311 17.564 11.2177 17.6772 11.057C18.4872 9.90302 18.8392 9.16535 18.7309 8.84658L18.689 8.77281C18.662 8.72802 18.5881 8.68587 18.4724 8.64899C18.3542 8.6121 18.2041 8.6042 18.0219 8.63054L15.9983 8.64635C15.9663 8.63318 15.9195 8.63581 15.8579 8.64899C15.7964 8.66479 15.7669 8.6727 15.7669 8.6727L15.7324 8.69114L15.7053 8.71485C15.6807 8.73066 15.6561 8.757 15.629 8.79389C15.6019 8.83077 15.5773 8.87556 15.5601 8.92561C15.3385 9.53155 15.0899 10.0953 14.8068 10.617C14.6344 10.9279 14.4744 11.1966 14.3292 11.4258C14.1839 11.655 14.0633 11.821 13.9648 11.929C13.8663 12.037 13.7777 12.1239 13.6965 12.1872C13.6177 12.253 13.5562 12.2794 13.5143 12.2688C13.4725 12.2583 13.4331 12.2478 13.3937 12.2399C13.3272 12.1951 13.2755 12.1345 13.2361 12.0554C13.1967 11.9764 13.1696 11.8789 13.1549 11.763C13.1401 11.6445 13.1327 11.5443 13.1303 11.4574C13.1278 11.3731 13.1303 11.2519 13.1327 11.0965C13.1376 10.941 13.1401 10.8356 13.1401 10.7803C13.1401 10.5906 13.1426 10.3825 13.15 10.1586C13.1573 9.93464 13.1623 9.75813 13.1672 9.62903C13.1721 9.49994 13.1746 9.36031 13.1746 9.21541C13.1746 9.07051 13.1672 8.95723 13.15 8.87292C13.1327 8.79125 13.1081 8.70958 13.0761 8.63318C13.0441 8.55678 12.9949 8.49618 12.9309 8.4514C12.8668 8.40924 12.7881 8.37499 12.6945 8.34865C12.4459 8.28805 12.1308 8.25644 11.7467 8.25117C10.8752 8.24063 10.3164 8.30123 10.0678 8.43295C9.96929 8.48828 9.88067 8.56205 9.80189 8.65952C9.71819 8.77017 9.70588 8.83077 9.76743 8.84131C10.0481 8.88609 10.2475 8.99411 10.3656 9.16535L10.4075 9.25493C10.4395 9.32079 10.474 9.43671 10.506 9.60005C10.538 9.76603 10.5601 9.94781 10.57 10.148C10.5921 10.5142 10.5921 10.8277 10.57 11.0886C10.5454 11.3494 10.5232 11.5522 10.5035 11.6971C10.4813 11.842 10.4518 11.9606 10.4075 12.0502C10.3656 12.1397 10.3361 12.1951 10.3238 12.2161C10.309 12.2372 10.2992 12.2478 10.2893 12.253C10.2278 12.2767 10.1662 12.2899 10.0998 12.2899C10.0333 12.2899 9.95452 12.2557 9.86097 12.1845C9.76743 12.1134 9.66895 12.0186 9.57048 11.8947C9.46955 11.7709 9.3563 11.5997 9.22829 11.3784C9.10274 11.1571 8.9698 10.8962 8.8344 10.5959L8.72115 10.3772C8.64976 10.2376 8.55375 10.0321 8.43312 9.76339C8.31003 9.49467 8.20417 9.23649 8.11063 8.98357C8.0737 8.87819 8.01708 8.79915 7.94076 8.74383L7.9063 8.72012C7.88414 8.69904 7.84475 8.67797 7.79305 8.65689C7.74135 8.63318 7.68719 8.61737 7.63057 8.60683L5.70544 8.62264C5.50849 8.62264 5.37555 8.67006 5.30416 8.76491L5.27708 8.80969C5.25739 8.84394 5.25 8.88346 5.25 8.93878C5.25 8.99411 5.26477 9.06261 5.29185 9.14164C5.5725 9.85033 5.88022 10.53 6.21011 11.1887C6.53999 11.8473 6.82802 12.3742 7.07174 12.7747C7.31546 13.1751 7.5641 13.5545 7.81767 13.9102C8.07124 14.2658 8.23864 14.495 8.31988 14.5951C8.40112 14.6952 8.46759 14.7716 8.51436 14.8217L8.68915 15.0035C8.80239 15.1247 8.96734 15.2669 9.18398 15.4355C9.40308 15.6042 9.64433 15.7701 9.90775 15.9335C10.1736 16.0968 10.4814 16.2285 10.8309 16.3313C11.183 16.434 11.5252 16.4762 11.8575 16.4551H12.665C12.8299 16.4393 12.953 16.384 13.0367 16.2891L13.0638 16.2523C13.0835 16.2233 13.1007 16.1759 13.1155 16.1126C13.1327 16.0494 13.1401 15.9809 13.1401 15.9045C13.1352 15.6885 13.15 15.4935 13.1869 15.3223C13.2213 15.1484 13.2607 15.0193 13.3075 14.9324C13.3518 14.8454 13.4035 14.7716 13.4577 14.7111C13.5143 14.6505 13.5537 14.6136 13.5783 14.603C13.6005 14.5899 13.6202 14.582 13.6349 14.5767C13.7482 14.5372 13.8787 14.5767 14.0313 14.6926C14.1839 14.8112 14.3267 14.9561 14.4596 15.1299C14.5926 15.3038 14.7526 15.4961 14.9422 15.7122C15.1293 15.9282 15.2942 16.0889 15.4345 16.1943L15.5748 16.2839C15.6684 16.3445 15.7915 16.3998 15.9416 16.4498C16.0918 16.4999 16.2223 16.5131 16.3355 16.4867L18.1351 16.4577C18.3124 16.4577 18.4527 16.4261 18.5487 16.3629C18.6472 16.2997 18.7063 16.2312 18.7235 16.1548C18.7432 16.0784 18.7432 15.9941 18.726 15.8992C18.7112 15.8017 18.694 15.7359 18.6792 15.6964Z" fill="white"/>
<defs>
<filter id="filter0_d_3_5039" x="0" y="-0.000488281" width="24" height="25.4802" filterUnits="userSpaceOnUse" color-interpolation-filters="sRGB">
<feFlood flood-opacity="0" result="BackgroundImageFix"/>
<feColorMatrix in="SourceAlpha" type="matrix" values="0 0 0 0 0 0 0 0 0 0 0 0 0 0 0 0 0 0 127 0" result="hardAlpha"/>
<feOffset dy="1.48018"/>
<feColorMatrix type="matrix" values="0 0 0 0 0.211765 0 0 0 0 0.458824 0 0 0 0 0.984314 0 0 0 1 0"/>
<feBlend mode="normal" in2="BackgroundImageFix" result="effect1_dropShadow_3_5039"/>
<feBlend mode="normal" in="SourceGraphic" in2="effect1_dropShadow_3_5039" result="shape"/>
</filter>
<linearGradient id="paint0_linear_3_5039" x1="12" y1="-8.16715" x2="32.5748" y2="3.96899" gradientUnits="userSpaceOnUse">
<stop stop-color="#4790FE"/>
<stop offset="1" stop-color="#7CB0FE"/>
</linearGradient>
</defs>
</svg>
